<svg width="28" height="27" viewBox="0 0 28 27" fill="none" xmlns="http://www.w3.org/2000/svg">
<path d="M10.5881 9.0914C10.5881 10.4662 9.47356 11.5808 8.09873 11.5808C6.7239 11.5808 5.60938 10.4662 5.60938 9.0914C5.60938 7.71657 6.7239 6.60205 8.09873 6.60205C9.47356 6.60205 10.5881 7.71657 10.5881 9.0914ZM6.79725 9.0914C6.79725 9.81019 7.37994 10.3929 8.09873 10.3929C8.81751 10.3929 9.4002 9.81019 9.4002 9.0914C9.4002 8.37262 8.81751 7.78993 8.09873 7.78993C7.37994 7.78993 6.79725 8.37262 6.79725 9.0914Z" fill="#605BB8"/>
<path d="M9.6142 15.0445C9.6142 16.4194 8.49968 17.5339 7.12485 17.5339C5.75002 17.5339 4.6355 16.4194 4.6355 15.0445C4.6355 13.6697 5.75002 12.5552 7.12485 12.5552C8.49968 12.5552 9.6142 13.6697 9.6142 15.0445ZM5.82338 15.0445C5.82338 15.7633 6.40607 16.346 7.12485 16.346C7.84364 16.346 8.42633 15.7633 8.42633 15.0445C8.42633 14.3257 7.84364 13.7431 7.12485 13.7431C6.40607 13.7431 5.82338 14.3257 5.82338 15.0445Z" fill="#605BB8"/>
<path d="M12.7524 20.023C12.7524 21.3979 11.6379 22.5124 10.263 22.5124C8.8882 22.5124 7.77368 21.3979 7.77368 20.023C7.77368 18.6482 8.8882 17.5337 10.263 17.5337C11.6379 17.5337 12.7524 18.6482 12.7524 20.023ZM8.96156 20.023C8.96156 20.7418 9.54425 21.3245 10.263 21.3245C10.9818 21.3245 11.5645 20.7418 11.5645 20.023C11.5645 19.3043 10.9818 18.7216 10.263 18.7216C9.54425 18.7216 8.96156 19.3043 8.96156 20.023Z" fill="#605BB8"/>
<path d="M18.5971 21.8629C18.5971 23.2377 17.4826 24.3522 16.1078 24.3522C14.7329 24.3522 13.6184 23.2377 13.6184 21.8629C13.6184 20.4881 14.7329 19.3735 16.1078 19.3735C17.4826 19.3735 18.5971 20.4881 18.5971 21.8629ZM14.8063 21.8629C14.8063 22.5817 15.389 23.1644 16.1078 23.1644C16.8265 23.1644 17.4092 22.5817 17.4092 21.8629C17.4092 21.1441 16.8265 20.5614 16.1078 20.5614C15.389 20.5614 14.8063 21.1441 14.8063 21.8629Z" fill="#605BB8"/>
<path fill-rule="evenodd" clip-rule="evenodd" d="M8.80296 0.674474C8.80243 0.66622 8.80216 0.65786 8.80216 0.649397C8.80216 0.314981 9.07274 0 9.39744 0C9.68857 0 9.89269 0.26104 9.97079 0.549063L9.9724 0.548902C10.0213 0.730734 10.1608 0.927227 10.4456 1.17742C10.6337 1.34264 10.833 1.48972 11.0589 1.65647L11.0589 1.65648C11.1925 1.75508 11.3354 1.86057 11.4908 1.98075C12.2248 2.54823 13.0768 3.33528 13.1763 4.64508L16.134 8.22552L16.1496 8.24441L16.1636 8.26451L27.2034 24.1206L27.2035 24.1208C27.4692 24.5027 27.6171 24.9124 27.5678 25.3152C27.5158 25.7397 27.2565 26.0528 26.9269 26.2176C26.3076 26.5272 25.4748 26.325 24.9939 25.6838L24.9882 25.6761L24.9882 25.676L13.5697 9.92818L13.5576 9.9116L13.5468 9.89424L11.1418 6.04625C10.3069 5.14818 9.67682 4.38036 9.28177 3.54891C8.87111 2.68461 8.73239 1.79246 8.80296 0.674474ZM14.2466 8.76754L12.3964 5.80722L12.5123 5.71065L14.7754 8.45024L14.2466 8.76754ZM10.7626 2.9226C11.4059 3.41999 11.8745 3.90107 11.9752 4.60848L11.6718 4.86127C11.0426 4.15838 10.6235 3.59865 10.3571 3.03798C10.2671 2.84841 10.193 2.65548 10.1349 2.45291C10.227 2.52253 10.32 2.59136 10.4107 2.65853L10.4108 2.65856L10.4108 2.65857C10.5349 2.75047 10.6548 2.83924 10.7626 2.9226ZM14.9147 9.75506L15.5044 9.40128L26.2262 24.8007C26.366 25.0017 26.3848 25.1171 26.3864 25.1562C26.3585 25.167 26.2972 25.1785 26.2122 25.156C26.1252 25.1331 26.0285 25.0775 25.9488 24.9726L14.9147 9.75506Z" fill="#605BB8"/>
<path fill-rule="evenodd" clip-rule="evenodd" d="M10.1343 3.04674C9.49634 3.32095 8.91037 3.65089 8.41397 4.03808C4.75949 6.97608 3.37109 10.413 3.44507 13.6336C3.51954 16.8759 5.07823 19.9664 7.44237 22.1716C9.8062 24.3766 12.9328 25.6583 16.1072 25.3527C18.4057 25.1314 20.7835 24.0725 22.9573 21.8424L23.6406 22.8439C21.3375 25.1373 18.7749 26.2919 16.2213 26.5378C12.6497 26.8816 9.19779 25.4372 6.63028 23.0422C4.06308 20.6476 2.33759 17.2643 2.25482 13.6609C2.17158 10.0368 3.75201 6.25696 7.67146 3.10742L7.67786 3.10228L7.6779 3.10232C9.06504 2.0188 10.9563 1.37088 12.745 1.05723C14.5311 0.744029 16.307 0.748352 17.4966 1.04577C18.7239 1.35259 19.5347 2.06111 19.7465 3.02416C19.9521 3.95856 19.5451 4.92626 18.8014 5.67C18.443 6.0284 18.229 6.57288 18.1988 7.1995C18.1687 7.82424 18.3252 8.48142 18.647 9.01605C18.9656 9.54545 19.4343 9.93844 20.0353 10.0928C20.6366 10.2472 21.4497 10.1828 22.4906 9.64486C22.6402 9.5675 22.8061 9.42111 23.0713 9.18709L23.0937 9.16733C23.3402 8.94986 23.6626 8.66919 24.0408 8.48401C24.4413 8.28794 24.9216 8.18955 25.4633 8.34886C25.9829 8.50169 26.4874 8.87113 27 9.45698C27.7167 10.276 27.9997 11.6818 27.9997 13.1501C27.9997 14.6559 27.7026 16.3772 27.1094 17.959C26.994 18.2668 26.6509 18.4228 26.343 18.3073C26.0352 18.1919 25.8792 17.8488 25.9947 17.541C26.538 16.0922 26.8091 14.5124 26.8091 13.1501C26.8091 11.7502 26.5238 10.7207 26.104 10.241C25.6716 9.7468 25.348 9.55594 25.1273 9.49104C24.9287 9.43263 24.7568 9.45909 24.5643 9.55332C24.3496 9.65844 24.1382 9.83351 23.8814 10.0601L23.8172 10.1169C23.6006 10.3092 23.3253 10.5536 23.0372 10.7025C21.8052 11.3393 20.6904 11.4902 19.7392 11.2459C18.7878 11.0016 18.0795 10.3819 17.6269 9.62997C17.1775 8.88328 16.9687 7.99054 17.0096 7.14216C17.0505 6.29566 17.3439 5.44383 17.9595 4.82814C18.5146 4.27309 18.6759 3.69848 18.5838 3.27996C18.498 2.8901 18.1452 2.43512 17.2079 2.20078C16.2329 1.95702 14.6364 1.93429 12.9506 2.2299C12.3816 2.32968 11.8128 2.46394 11.2638 2.63345L10.6957 1.80078L9.73255 2.45788L10.1343 3.04674ZM23.7613 20.952L24.4563 21.9707C25.0962 21.2357 25.7123 20.4053 26.2982 19.474C26.4733 19.1957 26.3897 18.8282 26.1114 18.6531C25.8331 18.4781 25.4656 18.5617 25.2906 18.84C24.7984 19.6221 24.2872 20.3244 23.7613 20.952Z" fill="#605BB8"/>
<path d="M2.84725 6.81871C0.412012 11.581 0.412 15.2609 2.68491 19.5361M3.38487 6.06662C3.63129 5.59237 3.80962 5.31222 4.25073 4.76782M11.4518 16.9385C12.4258 17.1549 13.1835 17.8585 13.3999 18.9408" stroke="#605BB8" stroke-width="0.378815" stroke-linecap="round"/>
<path d="M23.0415 24.5983C22.6704 24.9829 22.4198 25.2008 21.8422 25.5974" stroke="#605BB8" stroke-width="0.378815" stroke-linecap="round"/>
<path d="M20.8915 12.6631L21.7573 13.7996" stroke="#605BB8" stroke-width="0.378815" stroke-linecap="round"/>
<path d="M12.8821 11.256L16.9717 16.6135" stroke="#605BB8" stroke-width="0.378815" stroke-linecap="round"/>
<path d="M17.56 17.4256L18.2705 18.2915" stroke="#605BB8" stroke-width="0.378815" stroke-linecap="round"/>
</svg>
