<svg width="64" height="62" viewBox="0 0 64 62" fill="none" xmlns="http://www.w3.org/2000/svg">
<path d="M23.1212 20.9757C23.1212 24.1476 20.5499 26.719 17.3779 26.719C14.2059 26.719 11.6345 24.1476 11.6345 20.9757C11.6345 17.8037 14.2059 15.2323 17.3779 15.2323C20.5499 15.2323 23.1212 17.8037 23.1212 20.9757ZM14.3752 20.9757C14.3752 22.634 15.7195 23.9784 17.3779 23.9784C19.0362 23.9784 20.3806 22.634 20.3806 20.9757C20.3806 19.3173 19.0362 17.9729 17.3779 17.9729C15.7195 17.9729 14.3752 19.3173 14.3752 20.9757Z" fill="#605BB8"/>
<path d="M20.8739 34.7099C20.8739 37.8819 18.3025 40.4533 15.1306 40.4533C11.9586 40.4533 9.38721 37.8819 9.38721 34.7099C9.38721 31.5379 11.9586 28.9666 15.1306 28.9666C18.3025 28.9666 20.8739 31.5379 20.8739 34.7099ZM12.1278 34.7099C12.1278 36.3683 13.4722 37.7126 15.1306 37.7126C16.7889 37.7126 18.1333 36.3683 18.1333 34.7099C18.1333 33.0516 16.7889 31.7072 15.1306 31.7072C13.4722 31.7072 12.1278 33.0516 12.1278 34.7099Z" fill="#605BB8"/>
<path d="M28.1151 46.1965C28.1151 49.3685 25.5438 51.9399 22.3718 51.9399C19.1998 51.9399 16.6284 49.3685 16.6284 46.1965C16.6284 43.0245 19.1998 40.4531 22.3718 40.4531C25.5438 40.4531 28.1151 43.0245 28.1151 46.1965ZM19.3691 46.1965C19.3691 47.8548 20.7134 49.1992 22.3718 49.1992C24.0301 49.1992 25.3745 47.8548 25.3745 46.1965C25.3745 44.5381 24.0301 43.1938 22.3718 43.1938C20.7134 43.1938 19.3691 44.5381 19.3691 46.1965Z" fill="#605BB8"/>
<path d="M41.6 50.4417C41.6 53.6137 39.0286 56.1851 35.8566 56.1851C32.6847 56.1851 30.1133 53.6137 30.1133 50.4417C30.1133 47.2698 32.6847 44.6984 35.8566 44.6984C39.0286 44.6984 41.6 47.2698 41.6 50.4417ZM32.8539 50.4417C32.8539 52.1001 34.1983 53.4445 35.8566 53.4445C37.515 53.4445 38.8594 52.1001 38.8594 50.4417C38.8594 48.7834 37.515 47.439 35.8566 47.439C34.1983 47.439 32.8539 48.7834 32.8539 50.4417Z" fill="#605BB8"/>
<path fill-rule="evenodd" clip-rule="evenodd" d="M19.0028 1.54976C19.0018 1.53279 19.0013 1.51562 19.0013 1.49827C19.0013 0.726715 19.6256 0 20.3748 0C21.0464 0 21.5173 0.602093 21.6975 1.2665L21.7005 1.2662C21.8135 1.68572 22.1351 2.13906 22.7923 2.71629C23.2263 3.0975 23.686 3.43682 24.2072 3.82154L24.2072 3.82154L24.2073 3.82156C24.5155 4.04906 24.8452 4.29243 25.2038 4.56971C26.8971 5.879 28.8628 7.69485 29.0924 10.7168L35.9164 18.9775L35.9524 19.021L35.9847 19.0674L61.4553 55.6502L61.4556 55.6506C62.0685 56.5317 62.41 57.4769 62.2962 58.4064C62.1763 59.3856 61.578 60.108 60.8175 60.4882C59.3887 61.2026 57.4672 60.736 56.3577 59.2566L56.3511 59.2478L56.3446 59.2388L30 22.9058L29.9723 22.8675L29.9473 22.8275L24.3985 13.9495C22.4723 11.8775 21.0186 10.106 20.1071 8.18774C19.1589 6.19205 18.8391 4.13203 19.0028 1.54976ZM31.5618 20.228L27.2931 13.398L27.5604 13.1752L32.7819 19.4959L31.5618 20.228ZM23.5236 6.74273C25.0078 7.8903 26.089 9.00022 26.3212 10.6323L25.6214 11.2156C24.1697 9.59388 23.2028 8.30249 22.5881 7.00893C22.3803 6.57157 22.2095 6.12643 22.0754 5.65908C22.288 5.81972 22.5026 5.97856 22.7119 6.13354C22.9983 6.34558 23.2749 6.5504 23.5236 6.74273ZM33.1033 22.5064L34.4637 21.6901L59.2007 57.2192L59.201 57.2197C59.5234 57.6831 59.5667 57.9492 59.5703 58.0395C59.506 58.0643 59.3645 58.0908 59.1685 58.0391C58.9677 57.9861 58.7447 57.8579 58.5607 57.6159L33.1033 22.5064Z" fill="#605BB8"/>
<path fill-rule="evenodd" clip-rule="evenodd" d="M22.0747 7.02984C20.6029 7.66247 19.251 8.42366 18.1058 9.31696C9.67431 16.0954 6.47104 24.0249 6.64171 31.4554C6.81354 38.936 10.4097 46.0662 15.8642 51.1541C21.3179 56.2413 28.5315 59.1984 35.8554 58.4934C41.1584 57.9829 46.6444 55.5397 51.6597 50.3948L53.236 52.7054C47.9225 57.9965 42.0101 60.6604 36.1186 61.2276C27.8784 62.0208 19.9142 58.6883 13.9905 53.1627C8.06757 47.6379 4.08657 39.8322 3.89561 31.5185C3.70355 23.157 7.34989 14.4363 16.3927 7.16975L16.4001 7.16382L16.4076 7.15799C19.6079 4.65813 23.9714 3.16326 28.0982 2.43961C32.2192 1.717 36.3164 1.72698 39.0611 2.41316C41.8927 3.12107 43.7632 4.75574 44.252 6.97765C44.7263 9.13347 43.7873 11.3661 42.0714 13.0821C41.2445 13.909 40.7509 15.1652 40.6812 16.6109C40.6117 18.0523 40.9727 19.5685 41.7151 20.802C42.4502 22.0234 43.5316 22.9301 44.9183 23.2862C46.3056 23.6425 48.1815 23.4939 50.5829 22.2527C50.9282 22.0743 51.311 21.7365 51.9229 21.1966L51.9229 21.1965L51.9745 21.151C52.5432 20.6493 53.287 20.0017 54.1597 19.5745C55.0837 19.1221 56.1918 18.8951 57.4415 19.2627C58.6402 19.6152 59.8043 20.4676 60.9871 21.8193C62.6405 23.709 63.2933 26.9524 63.2933 30.3399C63.2933 33.8141 62.6079 37.7855 61.2394 41.4349C60.9731 42.1451 60.1814 42.5049 59.4712 42.2386C58.761 41.9723 58.4012 41.1806 58.6675 40.4704C59.921 37.1278 60.5465 33.483 60.5465 30.3399C60.5465 27.11 59.8884 24.7349 58.9199 23.6281C57.9222 22.4879 57.1754 22.0476 56.6664 21.8979C56.2082 21.7631 55.8115 21.8241 55.3674 22.0415C54.872 22.2841 54.3843 22.688 53.7918 23.2108C53.769 23.2309 53.7459 23.2513 53.7225 23.2721C53.6966 23.295 53.6704 23.3183 53.6438 23.3419C53.144 23.7855 52.5088 24.3494 51.8442 24.6929C49.0017 26.162 46.4296 26.5103 44.2351 25.9467C42.04 25.383 40.4057 23.9532 39.3617 22.2184C38.3248 20.4957 37.8431 18.4359 37.9375 16.4786C38.0317 14.5256 38.7086 12.5603 40.1291 11.1398C41.4097 9.85914 41.7817 8.53342 41.5693 7.56784C41.3714 6.66836 40.5575 5.61863 38.3949 5.07797C36.1454 4.51559 32.4621 4.46314 28.5727 5.14516C27.2597 5.37539 25.9474 5.68516 24.6807 6.07629L23.3699 4.15504L21.1477 5.67111L22.0747 7.02984ZM53.5146 48.3403L55.1181 50.6907C56.5946 48.9949 58.016 47.0789 59.3679 44.9303C59.7719 44.2883 59.5789 43.4403 58.9368 43.0364C58.2948 42.6325 57.4469 42.8255 57.043 43.4675C55.9076 45.2721 54.7281 46.8924 53.5146 48.3403Z" fill="#605BB8"/>
<path d="M5.26193 15.7318C-0.356588 26.7191 -0.356618 35.2093 4.88738 45.0729M6.50231 13.9965C7.07084 12.9024 7.48227 12.256 8.5 11M25.114 39.0798C27.3614 39.5792 29.1094 41.2023 29.6088 43.6994" stroke="#605BB8" stroke-width="0.87399" stroke-linecap="round"/>
<path d="M51.853 56.7527C50.997 57.6402 50.4188 58.143 49.0861 59.058" stroke="#605BB8" stroke-width="0.87399" stroke-linecap="round"/>
<path d="M46.8927 29.2163L48.8904 31.8383" stroke="#605BB8" stroke-width="0.87399" stroke-linecap="round"/>
<path d="M28.4142 25.9699L37.8496 38.3306" stroke="#605BB8" stroke-width="0.87399" stroke-linecap="round"/>
<path d="M39.2065 40.2036L40.8457 42.2013" stroke="#605BB8" stroke-width="0.87399" stroke-linecap="round"/>
</svg>
