<svg width="28" height="22" viewBox="0 0 28 22" fill="none" xmlns="http://www.w3.org/2000/svg">
<rect x="0.83123" y="0.544364" width="26.6244" height="20.8838" rx="1.13822" stroke="#605BB8" stroke-width="1.08873"/>
<rect x="0.286865" y="3.56299" width="27.7131" height="1.08873" fill="#605BB8"/>
<circle cx="21.9126" cy="2.3262" r="0.64334" fill="#605BB8"/>
<circle cx="23.6944" cy="2.3262" r="0.64334" fill="#605BB8"/>
<circle cx="25.4761" cy="2.3262" r="0.64334" fill="#605BB8"/>
<path d="M8.64898 9.07531C8.84689 8.84899 9.19079 8.82596 9.4171 9.02387C9.64342 9.22178 9.66645 9.56569 9.46854 9.792L6.45111 13.2425L5.63155 12.5258L8.64898 9.07531Z" fill="#605BB8"/>
<path d="M16.6 9.07531C16.4021 8.84899 16.0582 8.82596 15.8319 9.02387C15.6056 9.22178 15.5826 9.56569 15.7805 9.792L18.7979 13.2425L19.6175 12.5258L16.6 9.07531Z" fill="#605BB8"/>
<path d="M8.69414 16.0001C8.89205 16.2264 9.23596 16.2495 9.46227 16.0516C9.68859 15.8537 9.71161 15.5098 9.5137 15.2834L6.49628 11.8329L5.67672 12.5496L8.69414 16.0001Z" fill="#605BB8"/>
<rect width="1.08873" height="8.20185" rx="0.544364" transform="matrix(0.924043 0.382288 0.382288 -0.924043 10.4998 16.1899)" fill="#605BB8"/>
<path d="M16.5541 16.0001C16.3562 16.2264 16.0123 16.2495 15.786 16.0516C15.5597 15.8537 15.5367 15.5098 15.7346 15.2834L18.752 11.8329L19.5716 12.5496L16.5541 16.0001Z" fill="#605BB8"/>
</svg>
