<svg width="71" height="56" viewBox="0 0 71 56" fill="none" xmlns="http://www.w3.org/2000/svg">
<rect x="1.62024" y="1.37341" width="67.1724" height="52.6891" rx="2.87168" stroke="#605BB8" stroke-width="2.74683"/>
<rect x="0.246826" y="8.9895" width="69.9192" height="2.74683" fill="#605BB8"/>
<circle cx="54.8084" cy="5.86824" r="1.62312" fill="#605BB8"/>
<circle cx="59.3031" cy="5.86824" r="1.62312" fill="#605BB8"/>
<circle cx="63.7979" cy="5.86824" r="1.62312" fill="#605BB8"/>
<path d="M21.3437 22.8967C21.843 22.3257 22.7107 22.2676 23.2817 22.7669C23.8527 23.2662 23.9107 24.1339 23.4114 24.7049L15.7986 33.4104L13.7308 31.6022L21.3437 22.8967Z" fill="#605BB8"/>
<path d="M41.4039 22.8967C40.9045 22.3257 40.0369 22.2676 39.4659 22.7669C38.8949 23.2662 38.8368 24.1339 39.3361 24.7049L46.949 33.4104L49.0167 31.6022L41.4039 22.8967Z" fill="#605BB8"/>
<path d="M21.4582 40.367C21.9575 40.938 22.8252 40.9961 23.3962 40.4968C23.9672 39.9975 24.0253 39.1298 23.5259 38.5588L15.9131 29.8533L13.8453 31.6615L21.4582 40.367Z" fill="#605BB8"/>
<rect width="2.74683" height="20.693" rx="1.37341" transform="matrix(0.924043 0.382288 0.382288 -0.924043 26.0139 40.8459)" fill="#605BB8"/>
<path d="M41.2889 40.367C40.7895 40.938 39.9219 40.9961 39.3509 40.4968C38.7799 39.9975 38.7218 39.1298 39.2211 38.5588L46.834 29.8533L48.9017 31.6615L41.2889 40.367Z" fill="#605BB8"/>
</svg>
