<svg width="77" height="58" viewBox="0 0 77 58" fill="none" xmlns="http://www.w3.org/2000/svg">
<path d="M62.65 6.03788C58.3453 4.07688 53.7292 2.6321 48.9028 1.80462C48.8149 1.78865 48.7271 1.82856 48.6818 1.90838C48.0882 2.9567 47.4306 4.32432 46.9701 5.39926C41.779 4.62767 36.6145 4.62767 31.5298 5.39926C31.0692 4.30043 30.3878 2.9567 29.7914 1.90838C29.7461 1.83122 29.6583 1.79131 29.5704 1.80462C24.7467 2.62946 20.1306 4.07424 15.8233 6.03788C15.786 6.05384 15.754 6.08048 15.7328 6.11504C6.97709 19.1022 4.57852 31.7701 5.75518 44.281C5.7605 44.3422 5.79511 44.4007 5.84303 44.4379C11.6198 48.6499 17.2156 51.2069 22.7075 52.9018C22.7954 52.9284 22.8885 52.8965 22.9445 52.8246C24.2436 51.0633 25.4016 49.2061 26.3945 47.253C26.4531 47.1386 26.3972 47.0029 26.2774 46.9577C24.4406 46.2659 22.6915 45.4224 21.0091 44.4646C20.876 44.3874 20.8654 44.1984 20.9878 44.108C21.3418 43.8446 21.696 43.5705 22.034 43.2938C22.0952 43.2433 22.1804 43.2326 22.2524 43.2645C33.3054 48.2748 45.2716 48.2748 56.1943 43.2645C56.2662 43.2299 56.3514 43.2406 56.4152 43.2911C56.7534 43.5679 57.1075 43.8446 57.4642 44.108C57.5866 44.1984 57.5786 44.3874 57.4455 44.4646C55.7631 45.441 54.014 46.2659 52.1745 46.955C52.0548 47.0003 52.0015 47.1386 52.0601 47.253C53.0743 49.2033 54.2323 51.0605 55.5075 52.822C55.5607 52.8965 55.6565 52.9284 55.7444 52.9018C61.263 51.2069 66.8587 48.6499 72.6355 44.4379C72.6861 44.4007 72.7181 44.3448 72.7234 44.2836C74.1316 29.8197 70.3647 17.2556 62.7378 6.11769C62.7191 6.08048 62.6873 6.05384 62.65 6.03788ZM28.0451 36.6632C24.7174 36.6632 21.9755 33.63 21.9755 29.9049C21.9755 26.1798 24.6642 23.1466 28.0451 23.1466C31.4526 23.1466 34.168 26.2064 34.1147 29.9049C34.1147 33.63 31.4259 36.6632 28.0451 36.6632ZM50.4867 36.6632C47.1591 36.6632 44.4171 33.63 44.4171 29.9049C44.4171 26.1798 47.1058 23.1466 50.4867 23.1466C53.8943 23.1466 56.6096 26.2064 56.5564 29.9049C56.5564 33.63 53.8943 36.6632 50.4867 36.6632Z" stroke="#605BB8" stroke-width="2.73803"/>
<path d="M60.2364 11.8407C65.7125 20.0549 67.5379 25.5309 68.4505 36.483" stroke="#605BB8" stroke-width="0.912678" stroke-linecap="round"/>
<path d="M19.463 56.8134C11.8649 53.8238 7.30139 51.0858 1.82539 46.5224" stroke="#605BB8" stroke-width="0.912678" stroke-linecap="round"/>
<path d="M1.82516 21.8801C3.65055 14.5787 6.47534 9.58103 11.0387 4.10503" stroke="#605BB8" stroke-width="0.912678" stroke-linecap="round"/>
<path d="M0.80957 26.4434C0.913718 25.3142 1.04478 24.7287 1.3107 23.7053" stroke="#605BB8" stroke-width="0.912678" stroke-linecap="round"/>
<path d="M41.9834 0.88855C43.1133 0.984126 43.6998 1.01136 44.7252 1.2695" stroke="#605BB8" stroke-width="0.912678" stroke-linecap="round"/>
<path d="M75.5623 47.4351C74.6731 48.1388 74.1589 48.4479 73.2347 48.9616" stroke="#605BB8" stroke-width="0.912678" stroke-linecap="round"/>
</svg>
