<svg width="81" height="61" viewBox="0 0 81 61" fill="none" xmlns="http://www.w3.org/2000/svg">
<path d="M20.9758 1L37.9562 1" stroke="#605BB8" stroke-width="0.87399" stroke-linecap="round"/>
<path d="M54.9365 22.7249L66.2415 13.985" stroke="#605BB8" stroke-width="0.87399" stroke-linecap="round"/>
<path d="M40.4534 1L42.7008 1" stroke="#605BB8" stroke-width="0.87399" stroke-linecap="round"/>
<path d="M51.6899 25.3525L53.4644 23.9734" stroke="#605BB8" stroke-width="0.87399" stroke-linecap="round"/>
<path d="M66.4233 45.199L73.665 45.199" stroke="#605BB8" stroke-width="0.87399" stroke-linecap="round"/>
<path d="M61.9282 45.199L64.1756 45.199" stroke="#605BB8" stroke-width="0.87399" stroke-linecap="round"/>
<path d="M9.23926 30.2161C7.74099 30.8403 6.24272 32.4635 5.49359 34.0866" stroke="#605BB8" stroke-width="0.87399" stroke-linecap="round"/>
<path d="M24.048 51.6912C21.7246 53.8137 18.9778 54.8126 15.4818 55.0623" stroke="#605BB8" stroke-width="0.87399" stroke-linecap="round"/>
<path d="M59.4314 52.9402L62.1124 56.241" stroke="#605BB8" stroke-width="0.87399" stroke-linecap="round"/>
<rect x="30.9639" y="58.4565" width="13.7737" height="2.49711" rx="1.24856" transform="rotate(-51.374 30.9639 58.4565)" fill="#605BB8"/>
<rect width="13.7737" height="2.49711" rx="1.24856" transform="matrix(-0.624235 -0.781237 -0.781237 0.624235 61.2402 58.4565)" fill="#605BB8"/>
<rect x="43.2" y="34.7488" width="35.0515" height="2.49711" rx="0.749134" transform="rotate(-38.3804 43.2 34.7488)" fill="#605BB8"/>
<path d="M37.8112 25.7221C38.1316 25.4603 38.6036 25.5078 38.8654 25.8282L46.0925 34.6732C46.3543 34.9935 46.3068 35.4655 45.9864 35.7273L45.2129 36.3593C44.8925 36.621 44.4206 36.5735 44.1588 36.2532L36.9317 27.4082C36.6699 27.0878 36.7174 26.6158 37.0378 26.3541L37.8112 25.7221Z" fill="#605BB8"/>
<path fill-rule="evenodd" clip-rule="evenodd" d="M14.6081 53.1899C22.676 53.1899 29.2162 46.6496 29.2162 38.5818C29.2162 30.5139 22.676 23.9736 14.6081 23.9736C6.54028 23.9736 0 30.5139 0 38.5818C0 46.6496 6.54028 53.1899 14.6081 53.1899ZM14.6081 50.4729C8.04082 50.4729 2.71697 45.1491 2.71697 38.5818C2.71697 32.0145 8.04082 26.6906 14.6081 26.6906C21.1754 26.6906 26.4993 32.0145 26.4993 38.5818C26.4993 45.1491 21.1754 50.4729 14.6081 50.4729ZM10.2506 37.3555C10.6368 38.0303 11.2222 38.6032 11.9466 39.0153L11.9577 39.0005C12.5096 39.2539 13.2825 39.4008 14.0471 39.5461L14.0472 39.5461L14.0472 39.5461C14.8472 39.6982 15.6383 39.8485 16.158 40.1174C16.4019 40.2986 16.6023 40.5214 16.7463 40.7729C16.9358 41.1041 17.0207 41.4733 16.9923 41.8425C16.9639 42.2117 16.8231 42.5677 16.5846 42.8738C16.346 43.1799 16.0182 43.4251 15.6349 43.5841C15.2516 43.7432 14.8266 43.8103 14.4037 43.7787C13.9808 43.7471 13.5751 43.6178 13.2285 43.4041C12.8819 43.1905 12.6068 42.9002 12.4315 42.5632C12.2835 42.2785 12.2112 41.9691 12.2189 41.658C12.2298 41.5915 12.2356 41.5231 12.2356 41.4534C12.2356 40.7639 11.6766 40.2049 10.987 40.2049C10.2974 40.2049 9.73844 40.7639 9.73844 41.4534C9.73844 41.4849 9.7396 41.5161 9.74189 41.547C9.71424 42.2025 9.86117 42.856 10.173 43.4558C10.5302 44.1426 11.0907 44.7341 11.797 45.1694C12.272 45.4621 12.8014 45.6771 13.3593 45.8062V47.0719V47.072C13.3594 47.7615 13.9184 48.3205 14.6079 48.3205C15.2974 48.3205 15.8564 47.7615 15.8565 47.072V47.0719V45.8062C16.1456 45.7393 16.4283 45.6491 16.7006 45.5361C17.4816 45.2121 18.1495 44.7125 18.6356 44.0887C19.1218 43.465 19.4085 42.7396 19.4664 41.9872C19.5243 41.2348 19.3513 40.4826 18.9651 39.8078C18.6496 39.2564 18.201 38.7731 17.6523 38.3899C16.9796 37.8309 15.9936 37.6509 15.0386 37.4765C14.0703 37.2996 13.134 37.1286 12.5886 36.5745C12.5455 36.5151 12.5057 36.4537 12.4695 36.3904C12.28 36.0593 12.1951 35.6901 12.2235 35.3208C12.2519 34.9516 12.3927 34.5956 12.6312 34.2895C12.8698 33.9834 13.1976 33.7382 13.5809 33.5792C13.9642 33.4202 14.3891 33.353 14.8121 33.3846C15.235 33.4163 15.6407 33.5455 15.9873 33.7592C16.3339 33.9728 16.609 34.2631 16.7843 34.6001C16.9326 34.8854 17.0049 35.1955 16.9969 35.5072C16.9861 35.5732 16.9805 35.641 16.9805 35.71C16.9805 36.3996 17.5395 36.9586 18.229 36.9586C18.9186 36.9586 19.4776 36.3996 19.4776 35.71C19.4776 35.6778 19.4764 35.6459 19.474 35.6143C19.5012 34.9595 19.3543 34.3067 19.0427 33.7076C18.6856 33.0207 18.125 32.4293 17.4187 31.994C16.9437 31.7012 16.4144 31.4862 15.8565 31.3572V30.0915C15.8565 29.402 15.2975 28.843 14.6079 28.843C13.9183 28.843 13.3593 29.402 13.3593 30.0915V31.3571C13.0702 31.424 12.7875 31.5142 12.5152 31.6272C11.7342 31.9513 11.0663 32.4509 10.5802 33.0746C10.094 33.6983 9.80727 34.4237 9.74936 35.1761C9.69145 35.9285 9.86448 36.6808 10.2506 37.3555Z" fill="#605BB8"/>
<path fill-rule="evenodd" clip-rule="evenodd" d="M28.2295 33.2925C28.5529 34.1247 28.8022 34.9939 28.9693 35.892L39.2682 27.7349C39.5926 27.478 39.6472 27.0069 39.3904 26.6825L38.7702 25.8995C38.5133 25.5752 38.0422 25.5205 37.7178 25.7774L28.2295 33.2925Z" fill="#605BB8"/>
<path fill-rule="evenodd" clip-rule="evenodd" d="M14.4832 5.99414H76.4116C77.1012 5.99414 77.6602 6.55314 77.6602 7.2427V46.1977C77.6602 46.8872 77.1012 47.4462 76.4116 47.4462H26.22C25.4304 48.479 24.5061 49.4034 23.4733 50.1931H76.4116C78.6182 50.1931 80.407 48.4043 80.407 46.1977V7.2427C80.407 5.03611 78.6182 3.24731 76.4116 3.24731H14.4832C12.2766 3.24731 10.4878 5.03611 10.4878 7.24269V24.5626C11.3715 24.3032 12.29 24.1252 13.2346 24.0371V7.24269C13.2346 6.55314 13.7936 5.99414 14.4832 5.99414Z" fill="#605BB8"/>
</svg>
