<svg width="70" height="53" viewBox="0 0 70 53" fill="none" xmlns="http://www.w3.org/2000/svg">
<path fill-rule="evenodd" clip-rule="evenodd" d="M63.9589 3.18362H6.09577C4.90929 3.18362 3.87729 3.84505 3.34838 4.81929L34.7262 29.8247L34.7103 29.8447C34.9469 30.0533 35.1056 30.0696 35.4348 29.8244L66.7377 4.87868C66.219 3.87203 65.1693 3.18362 63.9589 3.18362ZM67.083 8.07724L43.8521 26.5902L67.083 43.9654V8.07724ZM41.4366 28.5152L37.1278 31.9489C35.7065 33.2014 34.484 33.2014 32.9899 31.9489L33.0066 31.928L28.6978 28.4943L3.12575 47.6205C3.53431 48.8702 4.70961 49.773 6.09577 49.773H63.9589C65.3566 49.773 66.5399 48.8551 66.9389 47.5893L41.4366 28.5152ZM2.97171 44.0041V7.99281L26.2822 26.5693L2.97171 44.0041ZM6.09577 0.467041C2.87007 0.467041 0.255127 3.08199 0.255127 6.30769V46.6489C0.255127 49.8746 2.87007 52.4895 6.09577 52.4895H63.9589C67.1846 52.4895 69.7995 49.8746 69.7995 46.6489V6.30769C69.7995 3.08199 67.1846 0.467041 63.9589 0.467041H6.09577Z" fill="#605BB8"/>
</svg>
