<svg width="23" height="17" viewBox="0 0 23 17" fill="none" xmlns="http://www.w3.org/2000/svg">
<path d="M18.5028 1.78325C17.2315 1.20409 15.8682 0.777395 14.4427 0.533008C14.4168 0.528291 14.3909 0.540078 14.3775 0.563653C14.2022 0.873261 14.0079 1.27717 13.8719 1.59464C12.3388 1.36676 10.8135 1.36676 9.31184 1.59464C9.17581 1.27011 8.97455 0.873261 8.79843 0.563653C8.78506 0.540865 8.75913 0.529078 8.73317 0.533008C7.30853 0.776614 5.94523 1.20331 4.67311 1.78325C4.6621 1.78796 4.65266 1.79583 4.6464 1.80604C2.06049 5.64163 1.35211 9.38295 1.69962 13.0779C1.70119 13.096 1.71141 13.1132 1.72556 13.1242C3.43167 14.3682 5.08432 15.1234 6.70629 15.6239C6.73225 15.6318 6.75975 15.6224 6.77627 15.6011C7.15994 15.0809 7.50196 14.5324 7.7952 13.9556C7.81251 13.9219 7.79599 13.8818 7.76062 13.8684C7.21813 13.6641 6.70157 13.415 6.20467 13.1321C6.16537 13.1093 6.16222 13.0535 6.19838 13.0268C6.30295 12.949 6.40754 12.868 6.50738 12.7863C6.52545 12.7714 6.55062 12.7682 6.57186 12.7777C9.83624 14.2574 13.3703 14.2574 16.5962 12.7777C16.6174 12.7675 16.6426 12.7706 16.6615 12.7855C16.7613 12.8673 16.8659 12.949 16.9712 13.0268C17.0074 13.0535 17.005 13.1093 16.9657 13.1321C16.4688 13.4205 15.9523 13.6641 15.409 13.8676C15.3736 13.881 15.3579 13.9219 15.3752 13.9556C15.6747 14.5316 16.0168 15.0801 16.3934 15.6004C16.4091 15.6224 16.4374 15.6318 16.4633 15.6239C18.0932 15.1234 19.7458 14.3682 21.4519 13.1242C21.4669 13.1132 21.4763 13.0967 21.4779 13.0787C21.8938 8.80692 20.7813 5.09628 18.5287 1.80682C18.5232 1.79583 18.5138 1.78796 18.5028 1.78325ZM8.28268 10.8281C7.29988 10.8281 6.49008 9.93223 6.49008 8.83207C6.49008 7.73192 7.28418 6.8361 8.28268 6.8361C9.28903 6.8361 10.091 7.73978 10.0753 8.83207C10.0753 9.93223 9.28116 10.8281 8.28268 10.8281ZM14.9105 10.8281C13.9278 10.8281 13.118 9.93223 13.118 8.83207C13.118 7.73192 13.912 6.8361 14.9105 6.8361C15.9169 6.8361 16.7188 7.73978 16.7031 8.83207C16.7031 9.93223 15.9169 10.8281 14.9105 10.8281Z" stroke="#605BB8" stroke-width="0.808645"/>
<path d="M17.79 3.49686C19.4073 5.9228 19.9464 7.54008 20.216 10.7747" stroke="#605BB8" stroke-width="0.269548" stroke-linecap="round"/>
<path d="M5.74813 16.7791C3.5041 15.8962 2.15633 15.0875 0.539065 13.7398" stroke="#605BB8" stroke-width="0.269548" stroke-linecap="round"/>
<path d="M0.539146 6.46208C1.07825 4.3057 1.91252 2.82971 3.26025 1.21244" stroke="#605BB8" stroke-width="0.269548" stroke-linecap="round"/>
<path d="M0.239136 7.80981C0.269895 7.47634 0.308601 7.30341 0.387137 7.00117" stroke="#605BB8" stroke-width="0.269548" stroke-linecap="round"/>
<path d="M12.3993 0.262451C12.733 0.290678 12.9062 0.298721 13.209 0.374962" stroke="#605BB8" stroke-width="0.269548" stroke-linecap="round"/>
<path d="M22.3164 14.0095C22.0538 14.2174 21.9019 14.3087 21.629 14.4604" stroke="#605BB8" stroke-width="0.269548" stroke-linecap="round"/>
</svg>
