<svg width="15" height="13" viewBox="0 0 15 13" fill="none" xmlns="http://www.w3.org/2000/svg">
<path d="M14.6737 6.10649H14.4018V4.2031C14.4018 4.09598 14.3807 3.9899 14.3397 3.89093C14.2987 3.79196 14.2386 3.70203 14.1629 3.62629C14.0871 3.55054 13.9972 3.49045 13.8982 3.44946C13.7993 3.40846 13.6932 3.38736 13.5861 3.38736H12.9743L12.6589 2.20726C12.6028 1.99861 12.4662 1.82073 12.2791 1.71266C12.092 1.60459 11.8697 1.57515 11.6609 1.63081L11.3618 1.71238L10.9567 0.861297C10.9114 0.763785 10.8473 0.676187 10.768 0.603542C10.6888 0.530896 10.5959 0.474634 10.4948 0.437993C10.3938 0.401352 10.2864 0.385054 10.179 0.390036C10.0716 0.395019 9.96629 0.421183 9.86904 0.467024L3.59602 3.38736H3.25341C3.03706 3.38736 2.82957 3.47331 2.67659 3.62629C2.52361 3.77927 2.43767 3.98675 2.43767 4.2031V7.2594C1.89201 7.5081 1.44788 7.93603 1.17908 8.47207C0.91027 9.00811 0.832974 9.62 0.960031 10.206C1.08709 10.7921 1.41085 11.317 1.87751 11.6936C2.34418 12.0702 2.92566 12.2758 3.52532 12.2762H13.5861C13.8024 12.2762 14.0099 12.1902 14.1629 12.0373C14.3159 11.8843 14.4018 11.6768 14.4018 11.4604V9.55706H14.6737C14.7458 9.55706 14.815 9.52841 14.866 9.47741C14.917 9.42642 14.9456 9.35726 14.9456 9.28514V6.3784C14.9456 6.30628 14.917 6.23712 14.866 6.18613C14.815 6.13513 14.7458 6.10649 14.6737 6.10649ZM10.1056 0.940152C10.1709 0.909516 10.2456 0.906055 10.3134 0.93053C10.3813 0.955006 10.4366 1.00541 10.4672 1.07067L10.8262 1.8429L8.35177 2.50637C8.31713 2.51565 8.28466 2.53167 8.25621 2.5535C8.22776 2.57533 8.2039 2.60255 8.18597 2.63361C8.16804 2.66467 8.15641 2.69895 8.15173 2.7345C8.14705 2.77006 8.14942 2.80618 8.15871 2.84082C8.16799 2.87546 8.18401 2.90792 8.20584 2.93637C8.22767 2.96482 8.25489 2.98869 8.28595 3.00662C8.31701 3.02454 8.35129 3.03618 8.38684 3.04085C8.4224 3.04553 8.45852 3.04316 8.49316 3.03388L11.8023 2.14744C11.8715 2.1291 11.9452 2.1388 12.0073 2.17443C12.0694 2.21007 12.115 2.26877 12.1341 2.33778L12.406 3.37649H4.88216L10.1056 0.940152ZM1.43975 9.64135C1.43921 9.22875 1.56107 8.82526 1.78991 8.48193C2.01875 8.1386 2.34428 7.87087 2.72532 7.7126C3.10636 7.55433 3.52578 7.51264 3.93052 7.5928C4.33526 7.67297 4.70713 7.87138 4.99907 8.16295C5.29102 8.45451 5.48992 8.82612 5.57061 9.23075C5.65131 9.63539 5.61016 10.0549 5.45239 10.4361C5.29462 10.8174 5.02731 11.1432 4.68428 11.3725C4.34125 11.6018 3.93792 11.7242 3.52532 11.7242C2.97288 11.7235 2.44324 11.5039 2.05235 11.1135C1.66147 10.7231 1.44119 10.1938 1.43975 9.64135ZM13.858 10.4571H8.90103C8.82892 10.4571 8.75978 10.4858 8.7088 10.5367C8.65782 10.5877 8.62918 10.6569 8.62918 10.729C8.62918 10.8011 8.65782 10.8703 8.7088 10.9212C8.75978 10.9722 8.82892 11.0009 8.90103 11.0009H13.858V11.4523C13.858 11.5244 13.8293 11.5936 13.7783 11.6446C13.7274 11.6955 13.6582 11.7242 13.5861 11.7242H5.11873C5.37923 11.5265 5.59977 11.281 5.7686 11.0009H6.51636C6.58846 11.0009 6.65761 10.9722 6.70858 10.9212C6.75956 10.8703 6.7882 10.8011 6.7882 10.729C6.7882 10.6569 6.75956 10.5877 6.70858 10.5367C6.65761 10.4858 6.58846 10.4571 6.51636 10.4571H6.02148C6.15083 10.0626 6.18484 9.6431 6.12073 9.23294C6.05661 8.82278 5.89618 8.43366 5.65261 8.09749C5.40904 7.76132 5.08925 7.48766 4.71947 7.29897C4.3497 7.11028 3.94046 7.01192 3.52532 7.01195C3.34252 7.0114 3.16019 7.03055 2.98149 7.06906V4.2031C2.98149 4.13098 3.01014 4.06182 3.06114 4.01083C3.11213 3.95984 3.18129 3.93119 3.25341 3.93119H13.5861C13.6582 3.93119 13.7274 3.95984 13.7783 4.01083C13.8293 4.06182 13.858 4.13098 13.858 4.2031V6.10649H11.0464C10.7825 6.10649 10.5293 6.21134 10.3427 6.39797C10.1561 6.58461 10.0512 6.83774 10.0512 7.10169V8.5537C10.0512 8.68439 10.077 8.8138 10.127 8.93454C10.177 9.05529 10.2503 9.165 10.3427 9.25741C10.4351 9.34982 10.5448 9.42313 10.6656 9.47314C10.7863 9.52316 10.9157 9.5489 11.0464 9.5489H13.858V10.4571ZM14.4018 9.00507H11.0464C10.9267 9.00507 10.8119 8.95752 10.7272 8.87287C10.6426 8.78822 10.595 8.67341 10.595 8.5537V7.10984C10.594 7.04989 10.6048 6.99031 10.627 6.9346C10.6492 6.8789 10.6823 6.82817 10.7243 6.78539C10.7663 6.74261 10.8165 6.70863 10.8718 6.68543C10.9271 6.66224 10.9864 6.6503 11.0464 6.65031H14.4018V9.00507Z" fill="#35CC94"/>
</svg>
