<svg width="81" height="61" viewBox="0 0 81 61" fill="none" xmlns="http://www.w3.org/2000/svg">
<path d="M58.6826 1L75.663 1" stroke="#605BB8" stroke-width="0.87399" stroke-linecap="round"/>
<path d="M54.9368 22.7247L66.2417 13.9848" stroke="#605BB8" stroke-width="0.87399" stroke-linecap="round"/>
<path d="M53.4385 1L55.6859 1" stroke="#605BB8" stroke-width="0.87399" stroke-linecap="round"/>
<path d="M51.6902 25.3525L53.4647 23.9734" stroke="#605BB8" stroke-width="0.87399" stroke-linecap="round"/>
<path d="M66.4236 45.199L73.6652 45.199" stroke="#605BB8" stroke-width="0.87399" stroke-linecap="round"/>
<path d="M61.9287 45.199L64.1761 45.199" stroke="#605BB8" stroke-width="0.87399" stroke-linecap="round"/>
<path d="M59.4316 52.9402L62.1126 56.241" stroke="#605BB8" stroke-width="0.87399" stroke-linecap="round"/>
<path d="M3.99536 58.4335H10.9873" stroke="#605BB8" stroke-width="0.87399" stroke-linecap="round"/>
<path d="M13.7344 58.4335H15.7321" stroke="#605BB8" stroke-width="0.87399" stroke-linecap="round"/>
<path d="M8.73991 26.9699C8.73984 25.3468 10.1133 24.0982 11.9862 24.2231" stroke="#605BB8" stroke-width="0.87399" stroke-linecap="round"/>
<rect x="30.9646" y="58.4568" width="13.7737" height="2.49711" rx="1.24856" transform="rotate(-51.374 30.9646 58.4568)" fill="#605BB8"/>
<rect width="13.7737" height="2.49711" rx="1.24856" transform="matrix(-0.624235 -0.781237 -0.781237 0.624235 61.2405 58.4568)" fill="#605BB8"/>
<rect x="43.2002" y="34.7489" width="35.0515" height="2.49711" rx="0.749134" transform="rotate(-38.3804 43.2002 34.7489)" fill="#605BB8"/>
<path d="M37.8112 25.7223C38.1316 25.4605 38.6036 25.508 38.8654 25.8284L46.0925 34.6734C46.3543 34.9938 46.3068 35.4657 45.9864 35.7275L45.2129 36.3595C44.8925 36.6213 44.4206 36.5738 44.1588 36.2534L36.9317 27.4084C36.6699 27.088 36.7174 26.6161 37.0378 26.3543L37.8112 25.7223Z" fill="#605BB8"/>
<circle cx="12.2358" cy="27.7192" r="6.86707" stroke="#605BB8" stroke-width="2.74683"/>
<path fill-rule="evenodd" clip-rule="evenodd" d="M76.4119 5.99426H14.4834C13.7939 5.99426 13.2349 6.55326 13.2349 7.24282V19.5387C12.9074 19.4991 12.5739 19.4787 12.2358 19.4787C11.6361 19.4787 11.0513 19.5428 10.488 19.6644V7.24282C10.488 5.03623 12.2768 3.24744 14.4834 3.24744H76.4119C78.6185 3.24744 80.4073 5.03623 80.4073 7.24282V46.1978C80.4073 48.4044 78.6185 50.1932 76.4119 50.1932H24.7215V47.4464H76.4119C77.1014 47.4464 77.6604 46.8874 77.6604 46.1978V7.24282C77.6604 6.55327 77.1014 5.99426 76.4119 5.99426ZM13.2349 37.7076V35.8997C12.9074 35.9393 12.5739 35.9597 12.2358 35.9597C11.6361 35.9597 11.0513 35.8956 10.488 35.774V37.7076H13.2349Z" fill="#605BB8"/>
<path d="M1.37341 44.6996C1.37341 41.5965 3.88891 39.0811 6.99192 39.0811H17.7295C20.8325 39.0811 23.348 41.5965 23.348 44.6996V54.3135H1.37341V44.6996Z" stroke="#605BB8" stroke-width="2.74683"/>
<path fill-rule="evenodd" clip-rule="evenodd" d="M21.3679 38.7274C22.0958 39.1718 22.7362 39.7456 23.257 40.4167L39.2687 27.7349C39.593 27.478 39.6477 27.0069 39.3908 26.6825L38.7707 25.8995C38.5138 25.5752 38.0426 25.5205 37.7183 25.7774L21.3679 38.7274Z" fill="#605BB8"/>
</svg>
