<svg width="33" height="26" viewBox="0 0 33 26" fill="none" xmlns="http://www.w3.org/2000/svg">
<path d="M24.084 1L31.0529 1" stroke="#605BB8" stroke-width="0.358694" stroke-linecap="round"/>
<path d="M22.5466 9.91602L27.1863 6.32908" stroke="#605BB8" stroke-width="0.358694" stroke-linecap="round"/>
<path d="M21.9316 1L22.854 1" stroke="#605BB8" stroke-width="0.358694" stroke-linecap="round"/>
<path d="M21.2141 10.9946L21.9424 10.4286" stroke="#605BB8" stroke-width="0.358694" stroke-linecap="round"/>
<path d="M27.261 19.1399L30.233 19.1399" stroke="#605BB8" stroke-width="0.358694" stroke-linecap="round"/>
<path d="M25.4163 19.1399L26.3386 19.1399" stroke="#605BB8" stroke-width="0.358694" stroke-linecap="round"/>
<path d="M24.3916 22.3169L25.4919 23.6716" stroke="#605BB8" stroke-width="0.358694" stroke-linecap="round"/>
<path d="M1.63965 24.5715H4.5092" stroke="#605BB8" stroke-width="0.358694" stroke-linecap="round"/>
<path d="M5.63672 24.5715H6.45659" stroke="#605BB8" stroke-width="0.358694" stroke-linecap="round"/>
<path d="M3.58695 11.6583C3.58692 10.9922 4.15061 10.4798 4.91925 10.531" stroke="#605BB8" stroke-width="0.358694" stroke-linecap="round"/>
<rect x="12.708" y="24.5806" width="5.65287" height="1.02484" rx="0.512421" transform="rotate(-51.374 12.708 24.5806)" fill="#605BB8"/>
<rect width="5.65287" height="1.02484" rx="0.512421" transform="matrix(-0.624235 -0.781237 -0.781237 0.624235 25.1338 24.5806)" fill="#605BB8"/>
<rect x="17.7297" y="14.8506" width="14.3855" height="1.02484" rx="0.307452" transform="rotate(-38.3804 17.7297 14.8506)" fill="#605BB8"/>
<path d="M15.518 11.1462C15.6495 11.0388 15.8432 11.0583 15.9506 11.1897L18.9167 14.8198C19.0242 14.9513 19.0047 15.145 18.8732 15.2524L18.5557 15.5118C18.4243 15.6193 18.2306 15.5998 18.1231 15.4683L15.157 11.8382C15.0496 11.7067 15.0691 11.513 15.2006 11.4056L15.518 11.1462Z" fill="#605BB8"/>
<circle cx="5.02163" cy="11.9657" r="2.81831" stroke="#605BB8" stroke-width="1.12733"/>
<path fill-rule="evenodd" clip-rule="evenodd" d="M31.3605 3.04969H5.94443C5.66143 3.04969 5.43201 3.27911 5.43201 3.56211V8.60838C5.29747 8.5921 5.16049 8.58373 5.02156 8.58373C4.77558 8.58373 4.53574 8.60999 4.30469 8.65985V3.56211C4.30469 2.6565 5.03883 1.92236 5.94443 1.92236H31.3605C32.2661 1.92236 33.0003 2.6565 33.0003 3.56211V19.5496C33.0003 20.4552 32.2661 21.1894 31.3605 21.1894H10.1459V20.0621H31.3605C31.6435 20.0621 31.8729 19.8326 31.8729 19.5496V3.56211C31.8729 3.27911 31.6435 3.04969 31.3605 3.04969ZM5.43201 16.0653V15.323C5.29747 15.3393 5.16049 15.3477 5.02156 15.3477C4.77558 15.3477 4.53574 15.3214 4.30469 15.2716V16.0653H5.43201Z" fill="#605BB8"/>
<path d="M0.563663 18.935C0.563663 17.6615 1.59605 16.6291 2.86956 16.6291H7.27638C8.54988 16.6291 9.58227 17.6615 9.58227 18.935V22.8806H0.563663V18.935Z" stroke="#605BB8" stroke-width="1.12733"/>
<path fill-rule="evenodd" clip-rule="evenodd" d="M8.76953 16.484C9.06828 16.6664 9.33108 16.9018 9.54482 17.1773L16.1164 11.9724C16.2495 11.8669 16.2719 11.6736 16.1665 11.5405L15.912 11.2191C15.8066 11.086 15.6132 11.0636 15.4801 11.169L8.76953 16.484Z" fill="#605BB8"/>
</svg>
