<svg width="29" height="22" viewBox="0 0 29 22" fill="none" xmlns="http://www.w3.org/2000/svg">
<path d="M24.0303 2.4123C22.3105 1.62882 20.4662 1.05159 18.5379 0.720991C18.5028 0.714611 18.4677 0.730556 18.4496 0.762447C18.2124 1.18128 17.9497 1.72768 17.7657 2.15715C15.6917 1.84888 13.6284 1.84888 11.5969 2.15715C11.4129 1.71814 11.1406 1.18128 10.9024 0.762447C10.8843 0.73162 10.8492 0.715675 10.8141 0.720991C8.88689 1.05054 7.04263 1.62777 5.32174 2.4123C5.30685 2.41867 5.29408 2.42931 5.2856 2.44312C1.78744 7.63184 0.829147 12.693 1.29925 17.6915C1.30138 17.7159 1.31521 17.7393 1.33435 17.7542C3.64234 19.437 5.87802 20.4586 8.07218 21.1357C8.1073 21.1463 8.1445 21.1336 8.16685 21.1049C8.68588 20.4012 9.14855 19.6592 9.54524 18.8789C9.56865 18.8332 9.54631 18.7789 9.49846 18.7609C8.76459 18.4845 8.0658 18.1475 7.39361 17.7648C7.34044 17.734 7.33618 17.6585 7.38509 17.6223C7.52655 17.5171 7.66804 17.4076 7.80311 17.297C7.82755 17.2769 7.8616 17.2726 7.89033 17.2853C12.3063 19.2871 17.0872 19.2871 21.4511 17.2853C21.4798 17.2715 21.5138 17.2758 21.5393 17.296C21.6744 17.4065 21.8159 17.5171 21.9584 17.6223C22.0073 17.6585 22.0041 17.734 21.951 17.7648C21.2788 18.1549 20.58 18.4845 19.845 18.7598C19.7972 18.7779 19.7759 18.8332 19.7993 18.8789C20.2045 19.6581 20.6672 20.4001 21.1767 21.1038C21.1979 21.1336 21.2362 21.1463 21.2713 21.1357C23.4761 20.4586 25.7118 19.437 28.0198 17.7542C28.04 17.7393 28.0528 17.717 28.0549 17.6925C28.6175 11.9138 27.1125 6.8941 24.0654 2.44418C24.0579 2.42931 24.0452 2.41867 24.0303 2.4123ZM10.2047 14.6479C8.87518 14.6479 7.7797 13.4361 7.7797 11.9478C7.7797 10.4595 8.85394 9.24769 10.2047 9.24769C11.5661 9.24769 12.6509 10.4702 12.6297 11.9478C12.6297 13.4361 11.5554 14.6479 10.2047 14.6479ZM19.1707 14.6479C17.8413 14.6479 16.7458 13.4361 16.7458 11.9478C16.7458 10.4595 17.82 9.24769 19.1707 9.24769C20.5321 9.24769 21.617 10.4702 21.5957 11.9478C21.5957 13.4361 20.5321 14.6479 19.1707 14.6479Z" stroke="#605BB8" stroke-width="1.09392"/>
</svg>
