<svg width="77" height="60" viewBox="0 0 77 60" fill="none" xmlns="http://www.w3.org/2000/svg">
<path d="M60.3397 13.359C65.8251 21.5872 67.6537 27.0726 68.5678 38.0434" stroke="#605BB8" stroke-width="0.914238" stroke-linecap="round"/>
<path d="M19.4965 58.4085C11.8853 55.4138 7.31405 52.6711 1.82869 48.0999" stroke="#605BB8" stroke-width="0.914238" stroke-linecap="round"/>
<path d="M1.82843 23.4157C3.65693 16.1018 6.48655 11.0956 11.0577 5.61029" stroke="#605BB8" stroke-width="0.914238" stroke-linecap="round"/>
<path d="M0.811279 27.9868C0.915605 26.8558 1.04689 26.2692 1.31326 25.2441" stroke="#605BB8" stroke-width="0.914238" stroke-linecap="round"/>
<path d="M42.0554 2.38818C43.1872 2.48392 43.7748 2.5112 44.8019 2.76979" stroke="#605BB8" stroke-width="0.914238" stroke-linecap="round"/>
<path d="M75.6917 49.0144C74.801 49.7193 74.2859 50.029 73.3601 50.5435" stroke="#605BB8" stroke-width="0.914238" stroke-linecap="round"/>
<path fill-rule="evenodd" clip-rule="evenodd" d="M59.4357 5.38237C56.0145 4.08061 52.4287 3.0901 48.7218 2.45437C48.0681 2.34013 47.4065 2.64503 47.0731 3.23284L47.0726 3.23369C46.6172 4.03777 46.1323 5.00828 45.7184 5.906C41.086 5.30612 36.4727 5.30476 31.9167 5.90354C31.4892 4.98891 30.9877 4.02699 30.5352 3.2314L30.5306 3.22337L30.5259 3.2154C30.1863 2.6366 29.5383 2.35548 28.9166 2.44962L28.9036 2.45158L28.8907 2.45378C23.9426 3.29989 19.2078 4.78147 14.79 6.79473C14.5284 6.91137 14.2878 7.10446 14.1149 7.36947C5.16287 20.6537 2.69488 33.6586 3.90027 46.4803C3.94359 46.9542 4.19368 47.3471 4.51276 47.5949L4.52915 47.6076L4.54592 47.6198C10.4674 51.9373 16.2122 54.5627 21.8428 56.3004L21.8495 56.3025C22.5049 56.5011 23.1781 56.2544 23.5668 55.755L23.5777 55.741L23.5882 55.7267C24.9314 53.9056 26.1315 51.9817 27.162 49.955C27.3534 49.5802 27.3801 49.1816 27.2813 48.823C34.8865 51.0157 42.75 51.0218 50.3045 48.8384C50.2115 49.1996 50.2445 49.5959 50.4294 49.9569L50.4332 49.9643C51.4815 51.9801 52.6768 53.8968 53.9907 55.712C54.3918 56.2691 55.0979 56.4965 55.7382 56.3025L55.7432 56.301C61.4015 54.5632 67.1468 51.9374 73.0685 47.6198L73.0729 47.6166C73.4286 47.3551 73.6707 46.9487 73.7139 46.4858C74.8463 34.8474 72.7055 24.3975 67.9594 14.9289C67.6161 15.1221 67.2198 15.2323 66.7978 15.2323C65.4877 15.2323 64.4256 14.1702 64.4256 12.8601V9.48885H61.6125C68.7276 20.12 72.248 32.0347 71.0318 45.7077C65.8064 49.4495 60.7383 51.8156 55.7332 53.4289C54.9258 52.2693 54.1714 51.0696 53.4777 49.8308C54.9452 49.2208 56.3598 48.5214 57.7324 47.7248L57.0636 44.4498L57.0642 44.4503L57.7329 47.7245C58.7389 47.1408 58.7764 45.7421 57.8783 45.0783L57.8779 45.078C57.6038 44.8757 57.3303 44.6641 57.0642 44.4503L55.6255 37.4061C56.8209 35.9413 57.5231 34.0121 57.5253 31.9634C57.5687 28.678 55.7365 25.6927 52.9771 24.4383L49.069 5.30297C52.4702 5.93926 55.7605 6.88952 58.9024 8.11618C58.7611 7.81241 58.6821 7.47371 58.6821 7.11659C58.6821 6.43212 58.972 5.81536 59.4357 5.38237ZM52.9768 24.4381L52.9771 24.4383L53.8413 28.6696L53.8408 28.6689L52.9768 24.4381ZM55.6252 37.4065C54.2923 39.0395 52.3464 40.095 50.0739 40.095C45.8507 40.095 42.6226 36.3031 42.6226 31.9538C42.6226 27.6128 45.79 23.8126 50.0739 23.8126C51.1157 23.8126 52.0937 24.0367 52.9768 24.4381L49.069 5.30297C48.617 6.16477 48.1572 7.13991 47.8118 7.94632L47.3954 8.91822L46.3496 8.76277C41.2819 8.00951 36.2459 8.01014 31.2903 8.76215L30.2332 8.92257L29.8198 7.93645C29.4814 7.12915 29.0096 6.16656 28.5454 5.30163C24.2344 6.10597 20.0992 7.41749 16.2167 9.15966C7.90259 21.6147 5.55463 33.7264 6.58465 45.7092C11.8107 49.4512 16.8793 51.8173 21.8634 53.4305C22.6821 52.2718 23.4371 51.073 24.1218 49.8343C22.649 49.2166 21.2343 48.5084 19.8674 47.7302L19.858 47.7248L19.858 47.7248C18.8808 47.1582 18.7853 45.765 19.7059 45.0809C20.0468 44.8274 20.3843 44.5661 20.7035 44.3048L20.6992 44.3083L21.5725 45.3655L20.7039 44.3044C21.1747 43.9186 21.813 43.8456 22.3476 44.0829L22.3574 44.0872L22.3574 44.0873C33.0696 48.943 44.6387 48.9412 55.2131 44.0927C55.7743 43.8306 56.4105 43.929 56.8637 44.2877L56.8724 44.2946L56.881 44.3016C56.9414 44.3511 57.0023 44.4005 57.0636 44.4498L55.6252 37.4065ZM54.7098 32.924L55.6252 37.4065L55.6255 37.4061L54.7099 32.923C54.7576 32.6108 54.7826 32.2871 54.7826 31.9538V31.944L54.7827 31.9341C54.8007 30.6856 54.4425 29.5625 53.8413 28.6696L54.7099 32.923L54.7098 32.924ZM54.7098 32.924L53.8408 28.6689C52.9643 27.3678 51.5715 26.5553 50.0739 26.5553C47.5844 26.5553 45.3653 28.8319 45.3653 31.9538C45.3653 35.0675 47.6304 37.3523 50.0739 37.3523C52.3182 37.3523 54.3101 35.5391 54.7098 32.924ZM60.5742 5.82947C60.0525 6.02419 59.681 6.527 59.681 7.11659C59.681 7.8751 60.2959 8.49 61.0544 8.49H64.2408C63.9993 8.1219 63.7538 7.75536 63.5042 7.39036C63.3213 7.09512 63.0636 6.90387 62.8193 6.79481C62.0797 6.45802 61.3312 6.13608 60.5742 5.82947ZM65.4244 10.3607C66.1616 11.5699 66.8553 12.7956 67.5039 14.0383C67.2976 14.1622 67.056 14.2335 66.7978 14.2335C66.0393 14.2335 65.4244 13.6186 65.4244 12.8601V10.3607ZM22.8852 31.9538C22.8852 28.832 25.1044 26.5553 27.5939 26.5553C30.1194 26.5553 32.3469 28.8656 32.3027 31.9341L32.3025 31.9439V31.9538C32.3025 35.0757 30.0833 37.3523 27.5939 37.3523C25.1503 37.3523 22.8852 35.0675 22.8852 31.9538ZM27.5939 23.8126C23.3101 23.8126 20.1425 27.6128 20.1425 31.9538C20.1425 36.3031 23.3707 40.095 27.5939 40.095C31.8745 40.095 35.0405 36.3006 35.0452 31.9636C35.1027 27.6266 31.8917 23.8126 27.5939 23.8126Z" fill="#605BB8"/>
<rect x="65.4243" width="2.74683" height="14.2336" rx="1.37341" fill="#51BBAE"/>
<rect x="73.9143" y="5.74316" width="2.74683" height="14.2336" rx="1.37341" transform="rotate(90 73.9143 5.74316)" fill="#51BBAE"/>
</svg>
