<svg width="72" height="60" viewBox="0 0 72 60" fill="none" xmlns="http://www.w3.org/2000/svg">
<path d="M50.5969 1L67.2928 1" stroke="#605BB8" stroke-width="0.859346" stroke-linecap="round"/>
<path d="M45.4407 1L47.6504 1" stroke="#605BB8" stroke-width="0.859346" stroke-linecap="round"/>
<path d="M58.2083 44.4585L65.3285 44.4585" stroke="#605BB8" stroke-width="0.859346" stroke-linecap="round"/>
<path d="M1 24.5708L0.999999 37.3382" stroke="#605BB8" stroke-width="0.859346" stroke-linecap="round"/>
<path d="M53.7886 44.4585L55.9983 44.4585" stroke="#605BB8" stroke-width="0.859346" stroke-linecap="round"/>
<path d="M1 20.1511L1 22.3609" stroke="#605BB8" stroke-width="0.859346" stroke-linecap="round"/>
<path d="M45.4404 54.5251C44.4991 53.2842 44.0913 52.5844 43.4762 51.3332" stroke="#605BB8" stroke-width="0.859346" stroke-linecap="round"/>
<rect x="4.56036" y="4.56012" width="66.0469" height="43.4583" rx="2.57804" stroke="#605BB8" stroke-width="2.7008"/>
<path d="M27.9935 51.6232C28.7024 50.6301 29.379 49.4871 29.6896 48.264H45.4917C45.8062 49.5598 46.4715 50.7676 47.1871 51.8294C47.9056 52.8954 48.7681 53.9416 49.5248 54.8595C49.7679 55.1544 50.0001 55.436 50.213 55.7008C50.6693 56.2682 51.0406 56.7595 51.3079 57.1898C51.5753 57.6203 51.6722 57.8867 51.6959 58.0255C51.6142 58.0873 51.4061 58.209 50.9554 58.3306H23.978C23.4673 58.1717 23.2749 58.0204 23.2206 57.9647C23.2213 57.9529 23.223 57.9362 23.2268 57.9137C23.256 57.7439 23.3739 57.4428 23.6752 56.9782C23.9659 56.5298 24.3634 56.0245 24.8443 55.4516C25.0886 55.1605 25.3566 54.8502 25.6366 54.526C26.4121 53.628 27.2799 52.6231 27.9935 51.6232ZM23.2207 57.9872C23.2207 57.9872 23.2206 57.9868 23.2206 57.9859L23.2207 57.9872Z" stroke="#605BB8" stroke-width="2.7008" stroke-linecap="round" stroke-linejoin="round"/>
<path fill-rule="evenodd" clip-rule="evenodd" d="M25.2619 46.6678C25.5296 46.235 25.7709 45.7841 25.9835 45.3175H28.1768C29.465 45.3175 30.5093 44.2732 30.5093 42.985V39.5476C30.5093 38.2594 29.465 37.2151 28.1768 37.2151H26.6806C26.5406 36.677 26.3646 36.1534 26.1554 35.647L27.8348 33.9676C28.7457 33.0567 28.7457 31.5798 27.8348 30.6689L25.4042 28.2383C24.4933 27.3274 23.0165 27.3274 22.1056 28.2383L20.7338 29.6101C20.1713 29.303 19.5817 29.039 18.9694 28.8226V27.0256C18.9694 25.7374 17.9251 24.6931 16.6369 24.6931H13.1995C11.9113 24.6931 10.867 25.7374 10.867 27.0256V28.8226C10.3823 28.9939 9.91173 29.1951 9.4576 29.4238L7.78099 27.7472C7.26932 27.2355 6.57908 27.0113 5.91089 27.0744V30.1381L6.13165 29.9174L8.27025 32.056L9.02777 32.8135L9.93776 32.2481C10.7385 31.7507 11.6184 31.37 12.554 31.1292L13.5678 30.8682V29.8214V27.3939H16.2686V29.8214V30.8682L17.2824 31.1292C18.3313 31.3991 19.3104 31.845 20.1863 32.4342L21.1088 33.0546L21.8949 32.2685L23.7549 30.4085L25.6647 32.3183L23.5803 34.4026L22.8843 35.0986L23.3338 35.9742C23.7783 36.8401 24.0928 37.7833 24.252 38.7787L24.4338 39.9159H25.5854H27.8085V42.6167H25.0774H24.1306L23.8079 43.5068C23.3795 44.6882 22.7225 45.7596 21.8903 46.6678H25.2619ZM18.5796 46.6678H11.2568C9.04784 45.3981 7.56033 43.0149 7.56033 40.2842C7.56033 36.2206 10.8546 32.9264 14.9182 32.9264C18.9818 32.9264 22.2761 36.2206 22.2761 40.2842C22.2761 43.0149 20.7885 45.3981 18.5796 46.6678ZM7.94638 46.6678H5.91089V43.1604C6.3315 44.4787 7.03354 45.6714 7.94638 46.6678ZM5.91089 37.4069C6.10544 36.7973 6.36017 36.2148 6.66802 35.6662L7.16869 34.7739L6.44523 34.0505L5.91089 33.5161V37.4069ZM10.2611 40.2842C10.2611 37.7122 12.3462 35.6272 14.9182 35.6272C17.4902 35.6272 19.5753 37.7122 19.5753 40.2842C19.5753 42.8563 17.4902 44.9413 14.9182 44.9413C12.3462 44.9413 10.2611 42.8563 10.2611 40.2842Z" fill="#605BB8"/>
<rect x="11.5581" y="10.3298" width="53.2794" height="2.45527" rx="0.736582" fill="#605BB8"/>
<rect x="34.3921" y="19.4146" width="30.4454" height="2.45527" rx="0.736582" fill="#605BB8"/>
<rect x="28.9902" y="14.7495" width="35.847" height="2.45527" rx="0.736582" fill="#605BB8"/>
<rect x="44.2131" y="23.8342" width="20.6243" height="2.45527" rx="0.736582" fill="#605BB8"/>
<rect x="11.5581" y="14.7495" width="14.4861" height="2.45527" rx="0.736582" fill="#605BB8"/>
<rect x="34.3921" y="23.8342" width="8.34793" height="2.45527" rx="0.736582" fill="#605BB8"/>
</svg>
