<svg width="81" height="61" viewBox="0 0 81 61" fill="none" xmlns="http://www.w3.org/2000/svg">
<path d="M20.9758 1L37.9562 1" stroke="#605BB8" stroke-width="0.87399" stroke-linecap="round"/>
<path d="M54.9365 22.7249L66.2415 13.985" stroke="#605BB8" stroke-width="0.87399" stroke-linecap="round"/>
<path d="M40.4534 1L42.7008 1" stroke="#605BB8" stroke-width="0.87399" stroke-linecap="round"/>
<path d="M51.6899 25.3525L53.4644 23.9734" stroke="#605BB8" stroke-width="0.87399" stroke-linecap="round"/>
<path d="M66.4233 45.199L73.665 45.199" stroke="#605BB8" stroke-width="0.87399" stroke-linecap="round"/>
<path d="M61.9282 45.199L64.1756 45.199" stroke="#605BB8" stroke-width="0.87399" stroke-linecap="round"/>
<path d="M9.23926 30.2163C7.74099 30.8406 6.24272 32.4637 5.49359 34.0868" stroke="#605BB8" stroke-width="0.87399" stroke-linecap="round"/>
<path d="M24.048 51.6915C21.7246 53.814 18.9778 54.8128 15.4818 55.0625" stroke="#605BB8" stroke-width="0.87399" stroke-linecap="round"/>
<path d="M59.4314 52.9402L62.1124 56.241" stroke="#605BB8" stroke-width="0.87399" stroke-linecap="round"/>
<rect x="30.9639" y="58.4565" width="13.7737" height="2.49711" rx="1.24856" transform="rotate(-51.374 30.9639 58.4565)" fill="#605BB8"/>
<rect width="13.7737" height="2.49711" rx="1.24856" transform="matrix(-0.624235 -0.781237 -0.781237 0.624235 61.2402 58.4565)" fill="#605BB8"/>
<rect x="43.2" y="34.749" width="35.0515" height="2.49711" rx="0.749134" transform="rotate(-38.3804 43.2 34.749)" fill="#605BB8"/>
<path d="M37.8112 25.7223C38.1316 25.4605 38.6036 25.508 38.8654 25.8284L46.0925 34.6734C46.3543 34.9938 46.3068 35.4657 45.9864 35.7275L45.2129 36.3595C44.8925 36.6213 44.4206 36.5738 44.1588 36.2534L36.9317 27.4084C36.6699 27.088 36.7174 26.6161 37.0378 26.3543L37.8112 25.7223Z" fill="#605BB8"/>
<path d="M29.2162 38.5815C29.2162 46.6494 22.676 53.1896 14.6081 53.1896C6.54028 53.1896 0 46.6494 0 38.5815C0 30.5137 6.54028 23.9734 14.6081 23.9734C22.676 23.9734 29.2162 30.5137 29.2162 38.5815ZM2.71697 38.5815C2.71697 45.1488 8.04082 50.4727 14.6081 50.4727C21.1754 50.4727 26.4993 45.1488 26.4993 38.5815C26.4993 32.0142 21.1754 26.6904 14.6081 26.6904C8.04082 26.6904 2.71697 32.0142 2.71697 38.5815Z" fill="#605BB8"/>
<path fill-rule="evenodd" clip-rule="evenodd" d="M28.2293 33.2926C28.5527 34.1248 28.802 34.994 28.9691 35.8921L39.2678 27.7352C39.5922 27.4783 39.6468 27.0071 39.39 26.6828L38.7698 25.8998C38.5129 25.5755 38.0417 25.5208 37.7174 25.7777L28.2293 33.2926Z" fill="#605BB8"/>
<path fill-rule="evenodd" clip-rule="evenodd" d="M14.4832 5.99438H76.4116C77.1012 5.99438 77.6602 6.55339 77.6602 7.24294V46.1979C77.6602 46.8875 77.1012 47.4465 76.4116 47.4465H26.22C25.4304 48.4793 24.506 49.4036 23.4733 50.1933H76.4116C78.6182 50.1933 80.407 48.4045 80.407 46.1979V7.24294C80.407 5.03635 78.6182 3.24756 76.4116 3.24756H14.4832C12.2766 3.24756 10.4878 5.03635 10.4878 7.24294V24.5628C11.3715 24.3035 12.29 24.1254 13.2346 24.0373V7.24294C13.2346 6.55338 13.7936 5.99438 14.4832 5.99438Z" fill="#605BB8"/>
<rect x="9.23926" y="33.4626" width="10.9873" height="2.49711" rx="1.24856" fill="#605BB8"/>
<rect x="15.9812" y="34.7112" width="10.9873" height="2.49711" rx="1.24856" transform="rotate(90 15.9812 34.7112)" fill="#605BB8"/>
</svg>
