<svg width="68" height="55" viewBox="0 0 68 55" fill="none" xmlns="http://www.w3.org/2000/svg">
<path d="M29.0367 18.1965C20.5187 17.3424 12.6739 13.2032 7.25376 6.66243L6.02577 5.18056L5.04532 6.83666C2.43396 11.2476 2.75374 16.5672 5.46377 20.5735C5.35785 20.5202 5.25279 20.4651 5.14862 20.4082L3.14486 19.3137V21.5969V21.5972V21.5975V21.5977V21.598V21.5983V21.5986V21.5989V21.5992V21.5994V21.5997V21.6V21.6003V21.6006V21.6009V21.6011V21.6014V21.6017V21.602V21.6023V21.6026V21.6028V21.6031V21.6034V21.6037V21.604V21.6043V21.6045V21.6048V21.6051V21.6054V21.6057V21.606V21.6062V21.6065V21.6068V21.6071V21.6074V21.6077V21.6079V21.6082V21.6085V21.6088V21.6091V21.6094V21.6096V21.6099V21.6102V21.6105V21.6108V21.6111V21.6113V21.6116V21.6119V21.6122V21.6125V21.6128V21.613V21.6133V21.6136V21.6139V21.6142V21.6145V21.6147V21.615V21.6153V21.6156V21.6159V21.6162V21.6164V21.6167V21.617V21.6173V21.6176V21.6179V21.6181V21.6184V21.6187V21.619V21.6193V21.6196V21.6199V21.6201V21.6204V21.6207V21.621V21.6213V21.6216V21.6218V21.6221V21.6224V21.6227V21.623V21.6233V21.6235V21.6238V21.6241V21.6244V21.6247V21.625V21.6252V21.6255V21.6258V21.6261V21.6264V21.6267V21.6269V21.6272V21.6275V21.6278V21.6281V21.6284V21.6286V21.6289V21.6292V21.6295V21.6298V21.6301V21.6304V21.6306V21.6309V21.6312V21.6315V21.6318V21.6321V21.6323V21.6326V21.6329V21.6332V21.6335V21.6338V21.634V21.6343V21.6346V21.6349V21.6352V21.6355V21.6357V21.636V21.6363V21.6366V21.6369V21.6372V21.6375V21.6377V21.638V21.6383V21.6386V21.6389V21.6392V21.6394V21.6397V21.64V21.6403V21.6406V21.6409V21.6412V21.6414V21.6417V21.642V21.6423V21.6426V21.6429V21.6431V21.6434V21.6437V21.644V21.6443V21.6446V21.6449V21.6451V21.6454V21.6457V21.646V21.6463V21.6466V21.6468V21.6471V21.6474V21.6477V21.648V21.6483V21.6486V21.6488V21.6491V21.6494V21.6497V21.65V21.6503V21.6506V21.6508V21.6511V21.6514V21.6517V21.652V21.6523V21.6526V21.6528V21.6531V21.6534V21.6537V21.654V21.6543V21.6545V21.6548V21.6551V21.6554V21.6557V21.656V21.6563V21.6565V21.6568V21.6571V21.6574V21.6577V21.658V21.6583V21.6585V21.6588V21.6591V21.6594V21.6597V21.66V21.6603V21.6605V21.6608V21.6611V21.6614V21.6617V21.662V21.6623V21.6625V21.6628V21.6631V21.6634V21.6637V21.664V21.6643V21.6646V21.6648V21.6651V21.6654V21.6657V21.666V21.6663V21.6666V21.6668V21.6671V21.6674V21.6677V21.668V21.6683V21.6686V21.6688V21.6691V21.6694V21.6697V21.67V21.6703V21.6706V21.6709V21.6711V21.6714V21.6717V21.672V21.6723V21.6726V21.6729V21.6732V21.6734V21.6737V21.674V21.6743V21.6746V21.6749V21.6752V21.6754V21.6757V21.676V21.6763V21.6766V21.6769V21.6772V21.6775V21.6777V21.678V21.6783V21.6786V21.6789V21.6792V21.6795V21.6798V21.68V21.6803V21.6806V21.6809V21.6812V21.6815V21.6818V21.6821V21.6824V21.6826V21.6829V21.6832V21.6835V21.6838V21.6841V21.6844V21.6847V21.6849V21.6852V21.6855V21.6858V21.6861V21.6864V21.6867V21.687V21.6872V21.6875V21.6878V21.6881V21.6884V21.6887V21.689V21.6893V21.6896V21.6898V21.6901V21.6904V21.6907V21.691V21.6913V21.6916V21.6919V21.6922V21.6924V21.6927V21.693V21.6933V21.6936V21.6939V21.6942V21.6945V21.6948V21.695V21.6953V21.6956V21.6959V21.6962V21.6965V21.6968V21.6971V21.6974V21.6977V21.6979V21.6982V21.6985V21.6988V21.6991V21.6994V21.6997V21.7V21.7003V21.7006V21.7008V21.7011V21.7014V21.7017V21.702V21.7023V21.7026V21.7029V21.7032V21.7035V21.7037V21.704V21.7043V21.7046V21.7049V21.7052V21.7055V21.7058V21.7061V21.7064V21.7067V21.7069V21.7072V21.7075V21.7078V21.7081V21.7084V21.7087V21.709V21.7093V21.7096V21.7099V21.7101V21.7104V21.7107V21.711V21.7113V21.7116V21.7119V21.7122V21.7125V21.7128V21.7131V21.7134V21.7136V21.7139V21.7142V21.7145V21.7148V21.7151V21.7154V21.7157V21.716V21.7163V21.7166V21.7169V21.7172V21.7174V21.7177V21.718V21.7183V21.7186V21.7189V21.7192V21.7195V21.7198V21.7201V21.7204V21.7207V21.721V21.7213V21.7215V21.7218V21.7221V21.7224V21.7227V21.723V21.7233V21.7236V21.7239V21.7242V21.7245V21.7248V21.7251V21.7254V21.7257V21.7259V21.7262V21.7265V21.7268V21.7271V21.7274V21.7277V21.728V21.7283V21.7286V21.7289V21.7292V21.7295V21.7298V21.7301V21.7304V21.7307V21.7309V21.7312V21.7315V21.7318V21.7321V21.7324V21.7327V21.733V21.7333V21.7336V21.7339V21.7342V21.7345V21.7348V21.7351V21.7354V21.7357V21.736V21.7363V21.7366V21.7368V21.7371V21.7374V21.7377V21.738V21.7383V21.7386V21.7389V21.7392V21.7395V21.7398V21.7401V21.7404V21.7407V21.741V21.7413V21.7416V21.7419V21.7422V21.7425V21.7428V21.7431V21.7434V21.7437V21.744V21.7443C3.14486 25.7889 5.04064 29.4538 8.06541 31.8512L6.65506 31.5845L7.37029 33.764C8.72193 37.8828 12.0248 40.9788 16.0771 42.2013C12.7185 44.0611 8.90863 45.0522 5.01087 45.0489C4.1182 45.0467 3.22906 44.9944 2.34546 44.8902L1.46547 47.3818C6.72514 50.691 12.7831 52.5501 19.0064 52.7786V52.8117H20.3609C43.0497 52.8117 55.4505 34.3462 55.4505 18.3735V18.3529C55.4505 18.0922 55.4505 17.8176 55.4447 17.5354C57.6411 15.8784 59.5524 13.8787 61.097 11.6088L63.7341 7.73329L59.4364 9.60498C58.9145 9.83226 58.3843 10.0395 57.8471 10.2264C58.6293 9.1484 59.2461 7.95067 59.6674 6.66963L60.7805 3.28487L57.7 5.07552C55.7046 6.23544 53.541 7.08562 51.2838 7.59504C46.2387 2.90602 38.2861 2.84227 33.1585 7.56921C30.1741 10.3198 28.6779 14.2496 29.0367 18.1965Z" stroke="#605BB8" stroke-width="2.70893"/>
</svg>
