<svg width="57" height="62" viewBox="0 0 57 62" fill="none" xmlns="http://www.w3.org/2000/svg">
<rect x="18" y="12" width="15" height="2" rx="0.749134" fill="#605BB8"/>
<rect x="18" y="17" width="15" height="2" rx="0.749134" fill="#605BB8"/>
<rect x="18" y="22" width="21" height="2" rx="0.749134" fill="#605BB8"/>
<rect width="18" height="2" rx="0.749134" transform="matrix(1 0 0 -1 18 39)" fill="#605BB8"/>
<rect width="17" height="2" rx="0.749134" transform="matrix(1 0 0 -1 18 44)" fill="#605BB8"/>
<rect width="14" height="2" rx="0.749134" transform="matrix(1 0 0 -1 18 49)" fill="#605BB8"/>
<rect x="18" y="27" width="19" height="2" rx="0.749134" fill="#605BB8"/>
<rect width="21" height="2" rx="0.749134" transform="matrix(1 0 0 -1 18 34)" fill="#605BB8"/>
<mask id="path-9-inside-1_69_671" fill="white">
<rect x="9" y="22" width="7" height="7" rx="1.49827"/>
</mask>
<rect x="9" y="22" width="7" height="7" rx="1.49827" stroke="#605BB8" stroke-width="3" mask="url(#path-9-inside-1_69_671)"/>
<mask id="path-10-inside-2_69_671" fill="white">
<rect x="9" y="12" width="7" height="7" rx="1.49827"/>
</mask>
<rect x="9" y="12" width="7" height="7" rx="1.49827" stroke="#605BB8" stroke-width="3" mask="url(#path-10-inside-2_69_671)"/>
<mask id="path-11-inside-3_69_671" fill="white">
<rect x="9" y="32" width="7" height="7" rx="1.49827"/>
</mask>
<rect x="9" y="32" width="7" height="7" rx="1.49827" stroke="#605BB8" stroke-width="3" mask="url(#path-11-inside-3_69_671)"/>
<mask id="path-12-inside-4_69_671" fill="white">
<rect x="9" y="42" width="7" height="7" rx="1.49827"/>
</mask>
<rect x="9" y="42" width="7" height="7" rx="1.49827" stroke="#605BB8" stroke-width="3" mask="url(#path-12-inside-4_69_671)"/>
<path d="M35.9595 49.3997L39.83 51.1477M35.9595 49.3997L34.4612 52.3962V57.1408L38.2069 54.3939L39.83 51.1477M35.9595 49.3997C40.4012 40.3326 46.7178 27.4384 49.5687 21.6188M39.83 51.1477C39.83 51.1477 47.6321 35.4156 53.5144 23.5546M49.5687 21.6188C50.5046 19.7084 51.067 18.5603 51.067 18.5603C51.6913 17.0621 55.8979 18.7484 55.0624 20.4332C54.5671 21.4319 54.0486 22.4773 53.5144 23.5546M49.5687 21.6188L53.5144 23.5546" stroke="#605BB8" stroke-width="2.74683" stroke-linecap="round" stroke-linejoin="round"/>
<path fill-rule="evenodd" clip-rule="evenodd" d="M5.9939 59.183V5.495H43.7003V34.1736L46.4472 28.4553V4.24644C46.4472 3.41897 45.7764 2.74817 44.9489 2.74817H4.74534C3.91787 2.74817 3.24707 3.41896 3.24707 4.24644V60.4315C3.24707 61.259 3.91787 61.9298 4.74534 61.9298H44.9489C45.7764 61.9298 46.4472 61.259 46.4472 60.4315V39.2218L44.4844 43.3078L43.7003 42.9312V59.183H5.9939Z" fill="#605BB8"/>
<path d="M1 10.4891V29.8418" stroke="#605BB8" stroke-width="0.87399" stroke-linecap="round" stroke-linejoin="round"/>
<path d="M1 32.2142V35.2108" stroke="#605BB8" stroke-width="0.87399" stroke-linecap="round" stroke-linejoin="round"/>
<path d="M54.1885 29.4673L51.9411 34.2118" stroke="#605BB8" stroke-width="0.87399" stroke-linecap="round" stroke-linejoin="round"/>
<path d="M40.7039 1L37.4576 1" stroke="#605BB8" stroke-width="0.87399" stroke-linecap="round" stroke-linejoin="round"/>
<path d="M23.4736 57.4349L15.4829 57.4349" stroke="#605BB8" stroke-width="0.87399" stroke-linecap="round" stroke-linejoin="round"/>
<path d="M13.2354 57.4349L10.9879 57.4349" stroke="#605BB8" stroke-width="0.87399" stroke-linecap="round" stroke-linejoin="round"/>
</svg>
