<svg width="214" height="179" viewBox="0 0 214 179" fill="none" xmlns="http://www.w3.org/2000/svg">
<rect x="4.18694" y="14.1869" width="204.779" height="160.626" rx="8.7545" stroke="#605BB8" stroke-width="8.37387"/>
<rect y="37.4053" width="213.153" height="8.37387" fill="#605BB8"/>
<circle cx="166.334" cy="27.8898" r="4.9482" fill="#605BB8"/>
<circle cx="180.037" cy="27.8898" r="4.9482" fill="#605BB8"/>
<circle cx="193.739" cy="27.8898" r="4.9482" fill="#605BB8"/>
<path d="M64.3151 79.8019C65.8373 78.0613 68.4824 77.8841 70.2231 79.4063C71.9638 80.9286 72.1409 83.5737 70.6187 85.3143L47.4104 111.854L41.1068 106.341L64.3151 79.8019Z" fill="#605BB8"/>
<path d="M125.47 79.8019C123.948 78.0613 121.303 77.8841 119.562 79.4063C117.821 80.9286 117.644 83.5737 119.166 85.3143L142.375 111.854L148.678 106.341L125.47 79.8019Z" fill="#605BB8"/>
<path d="M64.664 133.061C66.1862 134.802 68.8313 134.979 70.572 133.457C72.3126 131.935 72.4898 129.29 70.9676 127.549L47.7592 101.01L41.4557 106.522L64.664 133.061Z" fill="#605BB8"/>
<rect width="8.37387" height="63.0839" rx="4.18694" transform="matrix(0.924043 0.382288 0.382288 -0.924043 78.5527 134.521)" fill="#605BB8"/>
<path d="M125.119 133.061C123.597 134.802 120.952 134.979 119.211 133.457C117.471 131.935 117.293 129.29 118.816 127.549L142.024 101.01L148.328 106.522L125.119 133.061Z" fill="#605BB8"/>
<path d="M102.008 162.428H186.508" stroke="#605BB8" stroke-width="2.66441" stroke-linecap="round"/>
<path d="M92.1782 2L70.1016 2" stroke="#605BB8" stroke-width="2.66441" stroke-linecap="round"/>
<path d="M195.643 73.1848V102.874" stroke="#605BB8" stroke-width="2.66441" stroke-linecap="round"/>
<path d="M195.643 111.248V118.861" stroke="#605BB8" stroke-width="2.66441" stroke-linecap="round"/>
<path d="M145.4 121.905L134.742 134.085" stroke="#605BB8" stroke-width="2.66441" stroke-linecap="round"/>
<path d="M57.0942 75.4683L46.4366 87.6484" stroke="#605BB8" stroke-width="2.66441" stroke-linecap="round"/>
<path d="M43.3899 91.4553L39.5836 96.0229" stroke="#605BB8" stroke-width="2.66441" stroke-linecap="round"/>
</svg>
